<svg width="16" height="16" viewBox="0 0 16 16" fill="none" xmlns="http://www.w3.org/2000/svg">
<path d="M11.44 14.7401L4.33499 14.4001H2.77499C2.30377 14.4001 1.85178 14.2132 1.51811 13.8805C1.18444 13.5477 0.996319 13.0963 0.994995 12.625V7.02505H4.145L9.645 1.70505C9.88589 1.48373 10.186 1.33732 10.5087 1.28368C10.8314 1.23003 11.1627 1.27148 11.4622 1.40295C11.7618 1.53443 12.0166 1.75026 12.1955 2.02409C12.3745 2.29793 12.4698 2.61793 12.47 2.94505C12.4709 3.18595 12.4542 3.4266 12.42 3.66505C12.2187 4.47847 11.9075 5.26066 11.495 5.99005L11.43 6.13005H13.165C13.4222 6.12001 13.6783 6.1678 13.9146 6.26991C14.1508 6.37202 14.3611 6.52585 14.53 6.72005C14.7495 7.02084 14.9 7.36628 14.9708 7.73183C15.0417 8.09737 15.0312 8.47404 14.94 8.83505V8.89505L13.71 12.8951C13.3 14.1201 12.545 14.7401 11.44 14.7401ZM4.84499 13.425L11.465 13.7401C11.905 13.7401 12.42 13.6001 12.745 12.5901L13.965 8.59006C14.0204 8.37704 14.0317 8.15494 13.9982 7.93741C13.9646 7.71987 13.887 7.5115 13.77 7.32506C13.6956 7.24268 13.6032 7.1786 13.5 7.13783C13.3968 7.09707 13.2856 7.08073 13.175 7.09006H9.80499L10.61 5.49506C10.9701 4.86676 11.2474 4.19452 11.435 3.49506C11.4632 3.30304 11.4766 3.10913 11.475 2.91505C11.4727 2.78404 11.4329 2.65642 11.3603 2.54735C11.2876 2.43828 11.1852 2.35233 11.0652 2.2997C10.9452 2.24706 10.8127 2.22995 10.6832 2.2504C10.5538 2.27084 10.4329 2.32799 10.335 2.41505L4.83499 7.71506L4.84499 13.425ZM1.995 8.02505V12.625C1.99632 12.831 2.07908 13.0282 2.22521 13.1734C2.37135 13.3186 2.56899 13.4001 2.77499 13.4001H3.84499V8.02505H1.995Z" fill="#666666"/>
</svg>
