<svg xmlns="http://www.w3.org/2000/svg" xmlns:xlink="http://www.w3.org/1999/xlink" width="96" zoomAndPan="magnify" viewBox="0 0 72 72" height="96" preserveAspectRatio="xMidYMid meet" version="1.0"><rect x="-7.2" width="86.4" fill="#ffffff" y="-7.2" height="86.4" fill-opacity="1"/><rect x="-7.2" width="86.4" fill="#ffffff" y="-7.2" height="86.4" fill-opacity="1"/><path fill="#000000" d="M 15.699219 47.894531 C 13.226562 47.894531 11.214844 45.882812 11.214844 43.40625 C 11.214844 40.933594 13.226562 38.921875 15.699219 38.921875 C 18.175781 38.921875 20.1875 40.933594 20.1875 43.40625 C 20.1875 45.882812 18.175781 47.894531 15.699219 47.894531 Z M 15.699219 43.40625 Z M 15.699219 43.40625 Z M 15.699219 43.40625 Z M 15.699219 43.40625 Z M 15.699219 43.40625 Z M 15.699219 43.40625 Z M 15.699219 43.40625 Z M 15.699219 43.40625 Z M 15.699219 43.40625 " fill-opacity="1" fill-rule="nonzero"/><path fill="#000000" d="M 29.160156 47.894531 C 26.683594 47.894531 24.671875 45.882812 24.671875 43.40625 C 24.671875 40.933594 26.683594 38.921875 29.160156 38.921875 C 31.632812 38.921875 33.644531 40.933594 33.644531 43.40625 C 33.644531 45.882812 31.632812 47.894531 29.160156 47.894531 Z M 29.160156 43.40625 Z M 29.160156 43.40625 Z M 29.160156 43.40625 Z M 29.160156 43.40625 Z M 29.160156 43.40625 Z M 29.160156 43.40625 Z M 29.160156 43.40625 Z M 29.160156 43.40625 Z M 29.160156 43.40625 " fill-opacity="1" fill-rule="nonzero"/><path fill="#000000" d="M 42.617188 47.894531 C 40.144531 47.894531 38.128906 45.882812 38.128906 43.40625 C 38.128906 40.933594 40.144531 38.921875 42.617188 38.921875 C 45.089844 38.921875 47.101562 40.933594 47.101562 43.40625 C 47.101562 45.882812 45.089844 47.894531 42.617188 47.894531 Z M 42.617188 43.40625 Z M 42.617188 43.40625 " fill-opacity="1" fill-rule="nonzero"/><path fill="#000000" d="M 2.242188 71.886719 C 1.652344 71.886719 1.082031 71.65625 0.65625 71.230469 C 0.136719 70.710938 -0.09375 69.96875 0.0351562 69.242188 L 2.699219 54.648438 C 0.988281 50.859375 0.125 46.832031 0.125 42.667969 C 0.125 26.621094 13.175781 13.570312 29.21875 13.570312 C 45.265625 13.570312 58.316406 26.621094 58.316406 42.667969 C 58.316406 58.710938 45.265625 71.765625 29.21875 71.765625 C 25.054688 71.765625 21.027344 70.898438 17.238281 69.1875 L 2.644531 71.851562 C 2.511719 71.875 2.375 71.886719 2.242188 71.886719 Z M 17.539062 64.609375 C 17.875 64.609375 18.207031 64.6875 18.511719 64.832031 C 21.882812 66.457031 25.488281 67.277344 29.21875 67.277344 C 42.792969 67.277344 53.832031 56.238281 53.832031 42.667969 C 53.832031 29.097656 42.792969 18.054688 29.21875 18.054688 C 15.648438 18.054688 4.609375 29.097656 4.609375 42.667969 C 4.609375 46.398438 5.433594 50.003906 7.054688 53.375 C 7.257812 53.804688 7.324219 54.285156 7.238281 54.753906 L 5.03125 66.855469 L 17.136719 64.648438 C 17.269531 64.625 17.402344 64.609375 17.539062 64.609375 Z M 17.539062 64.609375 " fill-opacity="1" fill-rule="nonzero"/><path fill="#000000" d="M 69.53125 53.945312 C 69.398438 53.945312 69.261719 53.933594 69.128906 53.90625 L 61.527344 52.515625 C 60.308594 52.292969 59.5 51.125 59.722656 49.90625 C 59.949219 48.6875 61.121094 47.875 62.332031 48.105469 L 66.746094 48.910156 L 64.769531 38.085938 C 64.683594 37.617188 64.75 37.132812 64.957031 36.707031 C 66.429688 33.648438 67.179688 30.371094 67.179688 26.960938 C 67.179688 14.628906 57.136719 4.597656 44.792969 4.597656 C 39.058594 4.597656 33.609375 6.785156 29.453125 10.75 C 29.035156 11.148438 28.480469 11.371094 27.902344 11.371094 C 26.664062 11.371094 25.648438 10.367188 25.648438 9.128906 C 25.648438 8.402344 25.992188 7.753906 26.523438 7.34375 C 31.496094 2.679688 37.976562 0.113281 44.792969 0.113281 C 59.609375 0.113281 71.664062 12.15625 71.664062 26.960938 C 71.664062 30.800781 70.875 34.507812 69.3125 37.980469 L 71.738281 51.296875 C 71.871094 52.023438 71.640625 52.769531 71.117188 53.285156 C 70.695312 53.710938 70.121094 53.945312 69.53125 53.945312 Z M 69.53125 53.945312 " fill-opacity="1" fill-rule="nonzero"/></svg>