<svg xmlns="http://www.w3.org/2000/svg" xmlns:xlink="http://www.w3.org/1999/xlink" width="96" zoomAndPan="magnify" viewBox="0 0 72 72" height="96" preserveAspectRatio="xMidYMid meet" version="1.0"><rect x="-7.2" width="86.4" fill="#ffffff" y="-7.2" height="86.4" fill-opacity="1"/><rect x="-7.2" width="86.4" fill="#ffffff" y="-7.2" height="86.4" fill-opacity="1"/><path fill="#000000" d="M 36 0 C 16.144531 0 0 16.144531 0 36 C 0 55.855469 16.144531 72 36 72 C 55.855469 72 72 55.855469 72 36 C 72 16.144531 55.855469 0 36 0 Z M 36 69.476562 C 17.515625 69.476562 2.523438 54.484375 2.523438 36 C 2.523438 17.515625 17.515625 2.523438 36 2.523438 C 54.484375 2.523438 69.476562 17.515625 69.476562 36 C 69.476562 54.484375 54.484375 69.476562 36 69.476562 Z M 36 69.476562 " fill-opacity="1" fill-rule="nonzero"/><path fill="#000000" d="M 36 18.832031 C 36 18.832031 22.003906 18.929688 25.09375 33.804688 C 26.007812 38.210938 36 48.457031 36 48.457031 C 36 48.457031 45.992188 38.210938 46.90625 33.804688 C 49.996094 18.929688 36 18.832031 36 18.832031 Z M 36 33.0625 C 35.484375 33.0625 34.988281 32.964844 34.511719 32.765625 C 34.035156 32.570312 33.613281 32.289062 33.25 31.921875 C 32.886719 31.558594 32.605469 31.136719 32.410156 30.660156 C 32.210938 30.183594 32.113281 29.6875 32.113281 29.171875 C 32.113281 28.65625 32.214844 28.160156 32.410156 27.683594 C 32.609375 27.210938 32.890625 26.789062 33.253906 26.425781 C 33.621094 26.058594 34.039062 25.78125 34.515625 25.582031 C 34.996094 25.386719 35.492188 25.289062 36.007812 25.289062 C 36.523438 25.289062 37.015625 25.390625 37.492188 25.589844 C 37.96875 25.785156 38.390625 26.066406 38.753906 26.433594 C 39.117188 26.796875 39.398438 27.21875 39.59375 27.695312 C 39.789062 28.171875 39.886719 28.667969 39.886719 29.183594 C 39.886719 29.699219 39.785156 30.195312 39.589844 30.667969 C 39.390625 31.144531 39.109375 31.5625 38.746094 31.925781 C 38.378906 32.289062 37.960938 32.570312 37.484375 32.769531 C 37.007812 32.964844 36.515625 33.0625 36 33.0625 Z M 36 33.0625 " fill-opacity="1" fill-rule="nonzero"/><path fill="#000000" d="M 44.050781 41.160156 C 43.78125 41.515625 43.503906 41.867188 43.21875 42.214844 C 46.59375 43.171875 48.804688 44.777344 48.804688 46.59375 C 48.804688 49.53125 43.074219 51.90625 36 51.90625 C 28.925781 51.90625 23.195312 49.53125 23.195312 46.59375 C 23.195312 44.777344 25.40625 43.171875 28.78125 42.214844 C 28.496094 41.867188 28.21875 41.515625 27.949219 41.160156 C 24.464844 42.242188 21.929688 44.078125 21.929688 46.59375 C 21.929688 50.867188 29.183594 53.167969 36 53.167969 C 42.816406 53.167969 50.070312 50.867188 50.070312 46.59375 C 50.070312 44.078125 47.535156 42.242188 44.050781 41.160156 Z M 44.050781 41.160156 " fill-opacity="1" fill-rule="nonzero"/></svg>