<svg xmlns="http://www.w3.org/2000/svg" xmlns:xlink="http://www.w3.org/1999/xlink" width="96" zoomAndPan="magnify" viewBox="0 0 72 72" height="96" preserveAspectRatio="xMidYMid meet" version="1.0"><rect x="-7.2" width="86.4" fill="#ffffff" y="-7.2" height="86.4" fill-opacity="1"/><rect x="-7.2" width="86.4" fill="#ffffff" y="-7.2" height="86.4" fill-opacity="1"/><rect x="-7.2" width="86.4" fill="#ffffff" y="-7.2" height="86.4" fill-opacity="1"/><path fill="#000000" d="M 36 0 C 16.117188 0 0 16.117188 0 36 C 0 55.882812 16.117188 72 36 72 C 55.882812 72 72 55.882812 72 36 C 72 16.117188 55.882812 0 36 0 Z M 56.933594 37.015625 C 55.90625 38.042969 54.394531 38.28125 53.136719 37.734375 L 53.136719 51.390625 C 53.136719 54.230469 50.835938 56.53125 47.996094 56.53125 L 24.003906 56.53125 C 21.164062 56.53125 18.863281 54.230469 18.863281 51.390625 L 18.863281 37.734375 C 17.605469 38.28125 16.09375 38.042969 15.066406 37.015625 C 13.726562 35.679688 13.726562 33.507812 15.066406 32.171875 L 33.578125 13.660156 C 34.914062 12.320312 37.085938 12.320312 38.421875 13.660156 L 56.933594 32.171875 C 58.273438 33.507812 58.273438 35.679688 56.933594 37.015625 Z M 56.933594 37.015625 " fill-opacity="1" fill-rule="nonzero"/><path fill="#000000" d="M 40.285156 37.679688 L 31.714844 37.679688 C 30.769531 37.679688 30 38.445312 30 39.394531 L 30 49.675781 C 30 50.621094 30.769531 51.390625 31.714844 51.390625 L 40.285156 51.390625 C 41.230469 51.390625 42 50.621094 42 49.675781 L 42 39.394531 C 42 38.445312 41.230469 37.679688 40.285156 37.679688 Z M 40.285156 37.679688 " fill-opacity="1" fill-rule="nonzero"/></svg>