<svg xmlns="http://www.w3.org/2000/svg" xmlns:xlink="http://www.w3.org/1999/xlink" width="96" zoomAndPan="magnify" viewBox="0 0 72 72" height="96" preserveAspectRatio="xMidYMid meet" version="1.0"><defs><clipPath id="9cada647b1"><path d="M 29 1.125 L 44 1.125 L 44 29 L 29 29 Z M 29 1.125 " clip-rule="nonzero"/></clipPath><clipPath id="04742e01a7"><path d="M 12 1.125 L 27 1.125 L 27 29 L 12 29 Z M 12 1.125 " clip-rule="nonzero"/></clipPath></defs><rect x="-7.2" width="86.4" fill="#ffffff" y="-7.2" height="86.4" fill-opacity="1"/><rect x="-7.2" width="86.4" fill="#ffffff" y="-7.2" height="86.4" fill-opacity="1"/><g clip-path="url(#9cada647b1)"><path fill="#000000" d="M 38.183594 4.03125 L 39.933594 6.902344 C 37.472656 8.6875 36.234375 11.351562 35.878906 13.773438 C 35.785156 14.414062 36.277344 14.992188 36.929688 14.996094 L 39.765625 14.996094 C 40.828125 14.996094 41.664062 15.824219 41.664062 16.890625 L 41.664062 24.015625 C 41.664062 25.082031 40.832031 25.90625 39.765625 25.90625 L 33.695312 25.90625 C 32.632812 25.90625 31.8125 25.082031 31.8125 24.015625 L 31.8125 15.617188 C 31.8125 11.054688 34.414062 6.546875 38.183594 4.03125 Z M 37.929688 1.421875 C 32.804688 4.011719 29.6875 9.90625 29.6875 15.617188 C 29.6875 18.417969 29.6875 24.015625 29.6875 24.015625 C 29.6875 26.21875 31.492188 28.035156 33.695312 28.035156 L 39.765625 28.035156 C 41.972656 28.035156 43.785156 26.222656 43.785156 24.015625 L 43.785156 16.890625 C 43.785156 14.679688 41.972656 12.871094 39.765625 12.871094 L 38.222656 12.871094 C 38.757812 11.101562 39.910156 9.273438 41.921875 8.171875 C 42.457031 7.878906 42.636719 7.199219 42.320312 6.683594 L 39.3125 1.808594 C 38.90625 1.15625 38.476562 1.144531 37.929688 1.421875 Z M 37.929688 1.421875 " fill-opacity="1" fill-rule="evenodd"/></g><g clip-path="url(#04742e01a7)"><path fill="#000000" d="M 21.007812 4.03125 L 22.761719 6.902344 C 20.304688 8.6875 19.0625 11.351562 18.710938 13.773438 C 18.613281 14.414062 19.109375 14.992188 19.753906 14.996094 L 22.59375 14.996094 C 23.65625 14.996094 24.488281 15.824219 24.488281 16.890625 L 24.488281 24.015625 C 24.488281 25.082031 23.65625 25.90625 22.59375 25.90625 L 16.527344 25.90625 C 15.457031 25.90625 14.636719 25.082031 14.636719 24.015625 L 14.636719 15.617188 C 14.640625 11.054688 17.246094 6.546875 21.007812 4.03125 Z M 20.757812 1.421875 C 15.632812 4.011719 12.511719 9.90625 12.511719 15.617188 C 12.511719 18.417969 12.511719 24.015625 12.511719 24.015625 C 12.511719 26.21875 14.316406 28.035156 16.527344 28.035156 L 22.59375 28.035156 C 24.800781 28.035156 26.617188 26.222656 26.617188 24.015625 L 26.617188 16.890625 C 26.617188 14.679688 24.800781 12.871094 22.59375 12.871094 L 21.054688 12.871094 C 21.582031 11.101562 22.742188 9.273438 24.746094 8.171875 C 25.28125 7.878906 25.460938 7.199219 25.144531 6.683594 L 22.140625 1.808594 C 21.734375 1.15625 21.300781 1.144531 20.757812 1.421875 Z M 20.757812 1.421875 " fill-opacity="1" fill-rule="evenodd"/></g><path fill="#000000" d="M 9.003906 12.871094 C 4.109375 12.871094 0.136719 16.839844 0.136719 21.730469 L 0.136719 51.714844 C 0.136719 56.605469 4.109375 60.578125 9.003906 60.578125 L 29.070312 60.578125 L 35.082031 68.171875 C 37.203125 70.847656 41.347656 69.429688 41.347656 66.382812 L 41.347656 60.578125 L 62.921875 60.578125 C 67.8125 60.578125 71.773438 56.601562 71.773438 51.714844 L 71.773438 21.730469 C 71.773438 16.839844 67.8125 12.871094 62.921875 12.871094 L 47.300781 12.871094 C 45.863281 12.847656 45.863281 15.015625 47.300781 14.996094 L 62.921875 14.996094 C 66.671875 14.996094 69.648438 17.980469 69.648438 21.730469 L 69.648438 51.714844 C 69.648438 55.464844 66.671875 58.449219 62.921875 58.449219 L 40.285156 58.449219 C 39.699219 58.449219 39.21875 58.929688 39.21875 59.515625 L 39.21875 66.140625 C 39.21875 67.988281 37.425781 67.710938 36.710938 66.804688 L 30.417969 58.847656 C 30.21875 58.597656 29.90625 58.453125 29.585938 58.453125 L 9.003906 58.453125 C 5.253906 58.453125 2.265625 55.46875 2.265625 51.71875 L 2.265625 21.730469 C 2.265625 17.984375 5.253906 14.996094 9.003906 14.996094 C 10.4375 15.015625 10.4375 12.847656 9.003906 12.871094 Z M 9.003906 12.871094 " fill-opacity="1" fill-rule="evenodd"/><path fill="#000000" d="M 15.671875 37.167969 L 17.285156 40.449219 C 17.441406 40.761719 17.738281 40.984375 18.09375 41.027344 L 21.679688 41.550781 L 19.128906 43.820312 C 18.851562 44.058594 18.726562 44.421875 18.777344 44.785156 L 19.410156 48.65625 L 16.167969 46.957031 C 15.859375 46.792969 15.488281 46.792969 15.183594 46.957031 L 11.945312 48.652344 L 12.566406 44.785156 C 12.625 44.421875 12.496094 44.058594 12.226562 43.820312 L 9.675781 41.550781 L 13.261719 41.027344 C 13.609375 40.976562 13.910156 40.761719 14.058594 40.449219 Z M 15.671875 34.601562 C 14.84375 34.601562 14.269531 35.207031 13.960938 35.839844 L 12.398438 39.003906 L 8.839844 39.523438 C 8.480469 39.578125 8.164062 39.648438 7.84375 39.816406 C 7.511719 39.988281 7.144531 40.339844 7.035156 40.8125 C 6.921875 41.285156 7.070312 41.703125 7.230469 42 C 7.402344 42.296875 7.601562 42.554688 7.859375 42.78125 L 10.375 45.027344 L 9.796875 48.59375 C 9.734375 48.964844 9.707031 49.300781 9.742188 49.648438 C 9.773438 50 9.886719 50.414062 10.238281 50.742188 C 10.589844 51.078125 11.109375 51.171875 11.472656 51.125 C 11.84375 51.082031 12.136719 50.960938 12.429688 50.800781 L 15.667969 49.101562 L 18.910156 50.800781 C 19.210938 50.960938 19.496094 51.082031 19.867188 51.125 C 20.234375 51.171875 20.75 51.078125 21.101562 50.742188 C 21.453125 50.414062 21.566406 50 21.601562 49.648438 C 21.636719 49.300781 21.605469 48.96875 21.539062 48.59375 L 20.964844 45.027344 L 23.492188 42.777344 C 23.75 42.539062 23.945312 42.292969 24.105469 42 C 24.277344 41.703125 24.429688 41.285156 24.316406 40.8125 C 24.199219 40.339844 23.832031 39.988281 23.507812 39.816406 C 23.1875 39.648438 22.859375 39.578125 22.507812 39.523438 L 18.945312 39.003906 L 17.390625 35.839844 C 17.082031 35.207031 16.503906 34.601562 15.671875 34.601562 Z M 15.671875 34.601562 " fill-opacity="1" fill-rule="nonzero"/><path fill="#000000" d="M 35.949219 37.167969 L 37.5625 40.449219 C 37.71875 40.761719 38.019531 40.984375 38.371094 41.027344 L 41.957031 41.550781 L 39.40625 43.820312 C 39.132812 44.058594 39.003906 44.421875 39.054688 44.785156 L 39.6875 48.65625 L 36.449219 46.957031 C 36.144531 46.792969 35.773438 46.792969 35.464844 46.957031 L 32.222656 48.652344 L 32.84375 44.785156 C 32.902344 44.421875 32.773438 44.058594 32.503906 43.820312 L 29.957031 41.550781 L 33.542969 41.027344 C 33.886719 40.976562 34.1875 40.761719 34.339844 40.449219 Z M 35.949219 34.601562 C 35.125 34.601562 34.546875 35.207031 34.238281 35.839844 L 32.679688 39.003906 L 29.117188 39.523438 C 28.761719 39.578125 28.445312 39.648438 28.121094 39.816406 C 27.796875 39.988281 27.429688 40.339844 27.3125 40.8125 C 27.199219 41.285156 27.347656 41.703125 27.511719 42 C 27.683594 42.296875 27.882812 42.554688 28.140625 42.78125 L 30.652344 45.027344 L 30.078125 48.59375 C 30.011719 48.964844 29.984375 49.300781 30.019531 49.648438 C 30.0625 50 30.167969 50.414062 30.519531 50.742188 C 30.871094 51.078125 31.390625 51.171875 31.761719 51.125 C 32.121094 51.082031 32.417969 50.960938 32.714844 50.800781 L 35.949219 49.101562 L 39.1875 50.800781 C 39.488281 50.960938 39.777344 51.082031 40.144531 51.125 C 40.515625 51.171875 41.03125 51.078125 41.382812 50.742188 C 41.734375 50.414062 41.84375 50 41.878906 49.648438 C 41.921875 49.300781 41.886719 48.96875 41.820312 48.59375 L 41.253906 45.027344 L 43.777344 42.777344 C 44.03125 42.539062 44.222656 42.292969 44.386719 42 C 44.558594 41.703125 44.707031 41.285156 44.597656 40.8125 C 44.488281 40.339844 44.117188 39.988281 43.789062 39.816406 C 43.46875 39.648438 43.140625 39.578125 42.789062 39.523438 L 39.222656 39.003906 L 37.671875 35.839844 C 37.359375 35.207031 36.78125 34.601562 35.949219 34.601562 Z M 35.949219 34.601562 " fill-opacity="1" fill-rule="nonzero"/><path fill="#000000" d="M 56.238281 37.167969 L 57.851562 40.449219 C 58.003906 40.761719 58.308594 40.984375 58.65625 41.027344 L 62.246094 41.550781 L 59.691406 43.820312 C 59.421875 44.058594 59.289062 44.421875 59.347656 44.785156 L 59.980469 48.65625 L 56.738281 46.957031 C 56.429688 46.792969 56.058594 46.792969 55.75 46.957031 L 52.507812 48.652344 L 53.136719 44.785156 C 53.195312 44.421875 53.066406 44.058594 52.796875 43.820312 L 50.246094 41.550781 L 53.832031 41.027344 C 54.179688 40.976562 54.476562 40.761719 54.628906 40.449219 Z M 56.238281 34.601562 C 55.410156 34.601562 54.839844 35.207031 54.53125 35.839844 L 52.964844 39.003906 L 49.402344 39.523438 C 49.050781 39.578125 48.734375 39.648438 48.40625 39.816406 C 48.082031 39.988281 47.714844 40.339844 47.601562 40.8125 C 47.492188 41.285156 47.632812 41.703125 47.800781 42 C 47.964844 42.296875 48.164062 42.554688 48.421875 42.78125 L 50.945312 45.027344 L 50.367188 48.59375 C 50.304688 48.964844 50.273438 49.300781 50.308594 49.648438 C 50.34375 50 50.457031 50.414062 50.804688 50.742188 C 51.160156 51.078125 51.671875 51.171875 52.042969 51.125 C 52.414062 51.082031 52.699219 50.960938 53 50.800781 L 56.238281 49.101562 L 59.480469 50.800781 C 59.773438 50.960938 60.066406 51.082031 60.4375 51.125 C 60.796875 51.171875 61.320312 51.078125 61.671875 50.742188 C 62.023438 50.414062 62.136719 50 62.167969 49.648438 C 62.203125 49.300781 62.167969 48.96875 62.109375 48.59375 L 61.535156 45.027344 L 64.0625 42.777344 C 64.320312 42.539062 64.507812 42.292969 64.675781 42 C 64.839844 41.703125 64.992188 41.285156 64.882812 40.8125 C 64.769531 40.339844 64.402344 39.988281 64.078125 39.816406 C 63.75 39.648438 63.429688 39.578125 63.070312 39.523438 L 59.507812 39.003906 L 57.957031 35.839844 C 57.644531 35.207031 57.066406 34.601562 56.238281 34.601562 Z M 56.238281 34.601562 " fill-opacity="1" fill-rule="nonzero"/></svg>