<svg xmlns="http://www.w3.org/2000/svg" xmlns:xlink="http://www.w3.org/1999/xlink" width="96" zoomAndPan="magnify" viewBox="0 0 72 72" height="96" preserveAspectRatio="xMidYMid meet" version="1.0"><rect x="-7.2" width="86.4" fill="#ffffff" y="-7.2" height="86.4" fill-opacity="1"/><rect x="-7.2" width="86.4" fill="#ffffff" y="-7.2" height="86.4" fill-opacity="1"/><path fill="#000000" d="M 70.625 0.75 C 70.21875 0.457031 69.765625 0.273438 69.269531 0.199219 C 68.773438 0.125 68.289062 0.167969 67.8125 0.328125 L 36 10.917969 L 4.1875 0.3125 C 3.949219 0.234375 3.710938 0.183594 3.464844 0.164062 C 3.21875 0.144531 2.972656 0.152344 2.726562 0.191406 C 2.480469 0.226562 2.246094 0.292969 2.015625 0.386719 C 1.789062 0.480469 1.574219 0.601562 1.371094 0.746094 C 1.171875 0.890625 0.992188 1.054688 0.832031 1.242188 C 0.667969 1.433594 0.53125 1.636719 0.417969 1.855469 C 0.308594 2.078125 0.222656 2.308594 0.164062 2.546875 C 0.105469 2.789062 0.078125 3.03125 0.078125 3.28125 L 0.078125 56.382812 C 0.078125 57.03125 0.261719 57.621094 0.628906 58.15625 C 1 58.691406 1.488281 59.070312 2.09375 59.300781 L 34.890625 71.796875 L 35.171875 71.796875 C 35.722656 71.96875 36.277344 71.96875 36.828125 71.796875 L 37.109375 71.796875 L 69.90625 59.300781 C 70.511719 59.070312 71 58.691406 71.371094 58.15625 C 71.738281 57.621094 71.921875 57.03125 71.921875 56.382812 L 71.921875 3.28125 C 71.921875 2.777344 71.808594 2.304688 71.578125 1.859375 C 71.351562 1.414062 71.03125 1.042969 70.625 0.75 Z M 6.324219 7.605469 L 32.875 16.460938 L 32.875 64.347656 L 6.324219 54.226562 Z M 65.675781 54.226562 L 39.125 64.347656 L 39.125 16.460938 L 65.675781 7.605469 Z M 65.675781 54.226562 " fill-opacity="1" fill-rule="nonzero"/><path fill="#000000" d="M 45.371094 26.707031 C 45.707031 26.707031 46.035156 26.65625 46.355469 26.550781 L 60.410156 21.867188 C 60.789062 21.722656 61.125 21.515625 61.421875 21.242188 C 61.722656 20.96875 61.957031 20.648438 62.128906 20.28125 C 62.300781 19.917969 62.402344 19.535156 62.425781 19.128906 C 62.449219 18.726562 62.398438 18.335938 62.269531 17.949219 C 62.140625 17.566406 61.945312 17.222656 61.683594 16.914062 C 61.421875 16.609375 61.109375 16.359375 60.753906 16.175781 C 60.394531 15.988281 60.015625 15.875 59.613281 15.835938 C 59.210938 15.796875 58.816406 15.832031 58.429688 15.945312 L 44.371094 20.632812 C 44.023438 20.753906 43.707031 20.929688 43.421875 21.160156 C 43.136719 21.394531 42.898438 21.667969 42.710938 21.984375 C 42.519531 22.300781 42.390625 22.640625 42.324219 23.003906 C 42.253906 23.363281 42.25 23.726562 42.3125 24.089844 C 42.371094 24.453125 42.492188 24.796875 42.671875 25.117188 C 42.851562 25.4375 43.082031 25.71875 43.363281 25.957031 C 43.644531 26.195312 43.957031 26.382812 44.300781 26.511719 C 44.644531 26.640625 45.003906 26.703125 45.371094 26.707031 Z M 45.371094 26.707031 " fill-opacity="1" fill-rule="nonzero"/><path fill="#000000" d="M 45.371094 40.761719 C 45.707031 40.765625 46.035156 40.710938 46.355469 40.605469 L 60.410156 35.921875 C 60.789062 35.777344 61.125 35.570312 61.421875 35.296875 C 61.722656 35.023438 61.957031 34.703125 62.128906 34.339844 C 62.300781 33.972656 62.402344 33.589844 62.425781 33.1875 C 62.449219 32.785156 62.398438 32.390625 62.269531 32.007812 C 62.140625 31.625 61.945312 31.277344 61.683594 30.972656 C 61.421875 30.664062 61.109375 30.417969 60.753906 30.230469 C 60.394531 30.042969 60.015625 29.929688 59.613281 29.890625 C 59.210938 29.851562 58.816406 29.890625 58.429688 30.003906 L 44.371094 34.6875 C 44.023438 34.808594 43.707031 34.984375 43.421875 35.21875 C 43.136719 35.449219 42.898438 35.726562 42.710938 36.042969 C 42.519531 36.359375 42.390625 36.695312 42.324219 37.058594 C 42.253906 37.421875 42.25 37.785156 42.3125 38.148438 C 42.371094 38.511719 42.492188 38.851562 42.671875 39.171875 C 42.851562 39.496094 43.082031 39.773438 43.363281 40.015625 C 43.644531 40.253906 43.957031 40.4375 44.300781 40.566406 C 44.644531 40.695312 45.003906 40.761719 45.371094 40.761719 Z M 45.371094 40.761719 " fill-opacity="1" fill-rule="nonzero"/><path fill="#000000" d="M 45.371094 54.820312 C 45.707031 54.820312 46.035156 54.769531 46.355469 54.664062 L 60.410156 49.976562 C 60.789062 49.835938 61.125 49.628906 61.421875 49.355469 C 61.722656 49.078125 61.957031 48.761719 62.128906 48.394531 C 62.300781 48.03125 62.402344 47.648438 62.425781 47.242188 C 62.449219 46.839844 62.398438 46.445312 62.269531 46.0625 C 62.140625 45.679688 61.945312 45.335938 61.683594 45.027344 C 61.421875 44.722656 61.109375 44.472656 60.753906 44.289062 C 60.394531 44.101562 60.015625 43.988281 59.613281 43.949219 C 59.210938 43.90625 58.816406 43.945312 58.429688 44.058594 L 44.371094 48.746094 C 44.023438 48.863281 43.707031 49.042969 43.421875 49.273438 C 43.136719 49.507812 42.898438 49.78125 42.710938 50.097656 C 42.519531 50.414062 42.390625 50.753906 42.324219 51.117188 C 42.253906 51.476562 42.25 51.839844 42.3125 52.203125 C 42.371094 52.566406 42.492188 52.910156 42.671875 53.230469 C 42.851562 53.550781 43.082031 53.832031 43.363281 54.070312 C 43.644531 54.308594 43.957031 54.492188 44.300781 54.621094 C 44.644531 54.75 45.003906 54.816406 45.371094 54.820312 Z M 45.371094 54.820312 " fill-opacity="1" fill-rule="nonzero"/><path fill="#000000" d="M 27.613281 20.617188 L 13.554688 15.929688 C 13.164062 15.800781 12.761719 15.75 12.347656 15.78125 C 11.933594 15.8125 11.542969 15.917969 11.171875 16.105469 C 10.800781 16.292969 10.480469 16.539062 10.210938 16.855469 C 9.9375 17.167969 9.738281 17.519531 9.605469 17.914062 C 9.476562 18.308594 9.425781 18.710938 9.457031 19.125 C 9.484375 19.539062 9.59375 19.929688 9.78125 20.300781 C 9.964844 20.671875 10.214844 20.992188 10.527344 21.261719 C 10.84375 21.535156 11.195312 21.734375 11.589844 21.867188 L 25.644531 26.550781 C 26.039062 26.679688 26.441406 26.730469 26.855469 26.703125 C 27.269531 26.671875 27.660156 26.5625 28.03125 26.378906 C 28.402344 26.191406 28.722656 25.941406 28.992188 25.628906 C 29.265625 25.316406 29.464844 24.960938 29.597656 24.566406 C 29.726562 24.175781 29.777344 23.769531 29.746094 23.355469 C 29.71875 22.945312 29.609375 22.550781 29.421875 22.179688 C 29.238281 21.808594 28.988281 21.488281 28.671875 21.21875 C 28.359375 20.949219 28.007812 20.746094 27.613281 20.617188 Z M 27.613281 20.617188 " fill-opacity="1" fill-rule="nonzero"/><path fill="#000000" d="M 27.613281 34.671875 L 13.554688 29.988281 C 13.164062 29.855469 12.757812 29.804688 12.347656 29.835938 C 11.933594 29.867188 11.539062 29.972656 11.171875 30.160156 C 10.800781 30.347656 10.480469 30.597656 10.207031 30.910156 C 9.9375 31.222656 9.734375 31.578125 9.605469 31.96875 C 9.476562 32.363281 9.425781 32.765625 9.453125 33.179688 C 9.484375 33.59375 9.59375 33.988281 9.777344 34.355469 C 9.964844 34.726562 10.214844 35.046875 10.527344 35.320312 C 10.839844 35.589844 11.195312 35.792969 11.589844 35.921875 L 25.644531 40.605469 C 26.039062 40.738281 26.441406 40.789062 26.855469 40.757812 C 27.269531 40.726562 27.660156 40.621094 28.03125 40.433594 C 28.402344 40.246094 28.722656 39.996094 28.992188 39.683594 C 29.265625 39.371094 29.464844 39.015625 29.59375 38.625 C 29.726562 38.230469 29.777344 37.828125 29.746094 37.414062 C 29.714844 37 29.609375 36.609375 29.421875 36.238281 C 29.234375 35.867188 28.988281 35.546875 28.671875 35.273438 C 28.359375 35.003906 28.007812 34.804688 27.613281 34.671875 Z M 27.613281 34.671875 " fill-opacity="1" fill-rule="nonzero"/><path fill="#000000" d="M 27.613281 48.730469 L 13.554688 44.042969 C 13.164062 43.914062 12.757812 43.863281 12.347656 43.894531 C 11.933594 43.921875 11.539062 44.03125 11.171875 44.214844 C 10.800781 44.402344 10.480469 44.652344 10.207031 44.964844 C 9.9375 45.28125 9.734375 45.632812 9.605469 46.027344 C 9.476562 46.421875 9.425781 46.824219 9.453125 47.238281 C 9.484375 47.652344 9.59375 48.042969 9.777344 48.414062 C 9.964844 48.785156 10.214844 49.105469 10.527344 49.375 C 10.839844 49.648438 11.195312 49.847656 11.589844 49.976562 L 25.644531 54.664062 C 26.039062 54.792969 26.441406 54.84375 26.855469 54.816406 C 27.269531 54.785156 27.660156 54.675781 28.03125 54.492188 C 28.402344 54.304688 28.722656 54.054688 28.992188 53.742188 C 29.265625 53.425781 29.464844 53.074219 29.597656 52.679688 C 29.726562 52.285156 29.777344 51.882812 29.746094 51.46875 C 29.71875 51.054688 29.609375 50.664062 29.421875 50.292969 C 29.238281 49.921875 28.988281 49.601562 28.671875 49.332031 C 28.359375 49.058594 28.007812 48.859375 27.613281 48.730469 Z M 27.613281 48.730469 " fill-opacity="1" fill-rule="nonzero"/></svg>