<svg width="15" height="13" viewBox="0 0 15 13" fill="none" xmlns="http://www.w3.org/2000/svg">
<path fill-rule="evenodd" clip-rule="evenodd" d="M0.732231 1.23223C1.20107 0.76339 1.83696 0.5 2.5 0.5H11.515C12.178 0.5 12.8139 0.76339 13.2828 1.23223C13.7516 1.70107 14.015 2.33696 14.015 3V7.5L14.015 7.50081C14.0139 8.15272 13.7583 8.77844 13.3025 9.24456L13.2987 9.24841L10 12.4797V10H2.5C1.83696 10 1.20107 9.73661 0.732231 9.26777C0.26339 8.79893 0 8.16304 0 7.5V3C0 2.33696 0.26339 1.70107 0.732231 1.23223ZM2.5 1.5C2.10217 1.5 1.72064 1.65803 1.43934 1.93934C1.15803 2.22064 1 2.60217 1 3V7.5C1 7.89783 1.15803 8.27936 1.43934 8.56066C1.72064 8.84196 2.10217 9 2.5 9H11V10.1003L12.591 8.54185C12.8621 8.26269 13.0142 7.88901 13.015 7.49972C13.015 7.49954 13.015 7.49936 13.015 7.49919L13.015 3C13.015 2.60217 12.857 2.22064 12.5757 1.93934C12.2944 1.65803 11.9128 1.5 11.515 1.5H2.5Z" fill="#666666"/>
</svg>
