<svg width="16" height="16" viewBox="0 0 16 16" fill="none" xmlns="http://www.w3.org/2000/svg">
<path fill-rule="evenodd" clip-rule="evenodd" d="M11.5166 4.96578C10.4724 4.28361 9.24706 3.93142 8 3.95499C6.75294 3.93142 5.52764 4.28361 4.48343 4.96578C3.43922 5.64795 2.62442 6.62853 2.145 7.77999C2.11777 7.84491 2.10375 7.9146 2.10375 7.98499C2.10375 8.05539 2.11777 8.12508 2.145 8.18999C2.6411 9.33044 3.45947 10.3012 4.4996 10.983C5.53972 11.6648 6.75632 12.028 8 12.028C9.24368 12.028 10.4603 11.6648 11.5004 10.983C12.5405 10.3012 13.3589 9.33044 13.855 8.18999C13.8822 8.12508 13.8963 8.05539 13.8963 7.98499C13.8963 7.9146 13.8822 7.84491 13.855 7.77999C13.3756 6.62853 12.5608 5.64795 11.5166 4.96578ZM3.66705 4.32177C4.92746 3.41338 6.4465 2.93422 8 2.95499C9.5535 2.93422 11.0725 3.41338 12.3329 4.32177C13.5934 5.23016 14.5284 6.51967 15 7.99999C14.5096 9.46851 13.5698 10.7456 12.3135 11.6505C11.0573 12.5555 9.54824 13.0424 8 13.0424C6.45176 13.0424 4.94273 12.5555 3.68649 11.6505C2.43024 10.7456 1.4904 9.46851 1 7.99999C1.47164 6.51967 2.40665 5.23016 3.66705 4.32177ZM8.83336 6.75279C8.58669 6.58797 8.29668 6.5 8 6.5C7.60218 6.5 7.22065 6.65803 6.93934 6.93933C6.65804 7.22064 6.5 7.60218 6.5 8C6.5 8.29667 6.58797 8.58669 6.7528 8.83336C6.91762 9.08003 7.15189 9.27229 7.42597 9.38582C7.70006 9.49935 8.00166 9.52905 8.29264 9.47118C8.58361 9.4133 8.85089 9.27043 9.06066 9.06065C9.27044 8.85087 9.4133 8.5836 9.47118 8.29263C9.52906 8.00166 9.49935 7.70007 9.38582 7.42598C9.27229 7.15189 9.08004 6.91761 8.83336 6.75279ZM6.61108 5.92133C7.0222 5.64662 7.50555 5.5 8 5.5C8.66304 5.5 9.29892 5.7634 9.76776 6.23224C10.2366 6.70108 10.5 7.33696 10.5 8C10.5 8.49445 10.3534 8.97781 10.0787 9.38893C9.80397 9.80005 9.41353 10.1205 8.95671 10.3097C8.4999 10.4989 7.99723 10.5484 7.51228 10.452C7.02733 10.3555 6.58187 10.1174 6.23223 9.76776C5.8826 9.41813 5.6445 8.97268 5.54804 8.48773C5.45157 8.00278 5.50108 7.5001 5.6903 7.04329C5.87952 6.58647 6.19996 6.19603 6.61108 5.92133Z" fill="#4C4C4C"/>
</svg>
